<svg width="669" height="659" xmlns="http://www.w3.org/2000/svg" xmlns:xlink="http://www.w3.org/1999/xlink" overflow="hidden"><defs><clipPath id="clip0"><rect x="50" y="53" width="669" height="659"/></clipPath></defs><g clip-path="url(#clip0)" transform="translate(-50 -53)"><path d="M169.5 382C169.5 265.192 263.744 170.5 380 170.5 496.256 170.5 590.5 265.192 590.5 382 590.5 498.808 496.256 593.5 380 593.5 263.744 593.5 169.5 498.808 169.5 382Z" stroke="#6DB33F" stroke-width="26.6667" stroke-miterlimit="8" fill="none" fill-rule="evenodd"/><path d="M269.5 358.5C269.5 343.036 282.26 330.5 298 330.5 313.74 330.5 326.5 343.036 326.5 358.5 326.5 373.964 313.74 386.5 298 386.5 282.26 386.5 269.5 373.964 269.5 358.5Z" stroke="#6DB33F" stroke-width="1.33333" stroke-miterlimit="8" fill="#6DB33F" fill-rule="evenodd"/><path d="M435.5 358.5C435.5 343.036 448.036 330.5 463.5 330.5 478.964 330.5 491.5 343.036 491.5 358.5 491.5 373.964 478.964 386.5 463.5 386.5 448.036 386.5 435.5 373.964 435.5 358.5Z" stroke="#6DB33F" stroke-width="1.33333" stroke-miterlimit="8" fill="#6DB33F" fill-rule="evenodd"/><path d="M410.691 436.903C410.691 436.903 402.617 442.151 394.762 443.36 336.563 452.367 352.016 495.097 352.73 495.376 352.73 495.376 356.818 490.674 361.528 488.455 391.397 474.384 401.034 453.345 401.034 453.345 401.034 453.345 389.971 478.758 363.502 490.748 357.649 493.395 352.416 501.688 349.189 510.385 349.189 510.385 353.112 509.629 354.761 509.533 356.145 505.674 358.167 502.127 360.987 499.143 392.712 509.36 408.47 485.307 411.645 476.46 419.129 455.581 410.691 436.903 410.691 436.903Z" fill="#6DB33F" fill-rule="evenodd"/></g></svg>